<?xml version="1.0" encoding="utf-8"?>
<!-- Generator: Adobe Illustrator 23.0.3, SVG Export Plug-In . SVG Version: 6.00 Build 0)  -->
<svg version="1.1" id="Layer_1" xmlns="http://www.w3.org/2000/svg" xmlns:xlink="http://www.w3.org/1999/xlink" x="0px" y="0px"
	 viewBox="0 0 1920 1080" style="enable-background:new 0 0 1920 1080;" xml:space="preserve">
<style type="text/css">
	.st0{fill:#E20613;}
</style>
<path class="st0" d="M673.7,912.9c35.8-2.9,71.7-5.5,107.5-8.2c97-11.7,194.5-19.4,291.9-24.1c167.6-8.2,335.1-7.2,502.8-11.9
	c110.8-3.1,221.6-7.3,332.6-10c3.8-0.1,7.7,0.2,11.5,0.9l-5.7-26.2h-22.1l-44.1-59.2l-0.5,0.4v-0.4H1815v-69h3.7v-15.9h-5.1
	c-1.1-1.8-3.8-4.3-10-6.6c8.6-5.3,8-12,8-12v-23.1l3.4-6.6v-1.5h-11v-13.2h0.1c0,0-0.4-5.1-9.1-8.9v-26.7c0,0-1.4-11.6-20-14.6v-6
	h-3.3v-7.9c4-1.3,6.8-4.7,6.8-8.8c0-4-2.8-7.3-6.8-8.7v-0.6h-0.1c-0.2-4.4-1.2-12.9-3.7-19.5c-2.6,6.6-3.4,15.1-3.7,19.5h-0.2v0.8
	c-3.6,1.5-6.1,4.7-6.1,8.5c0,3.8,2.5,7.1,6.1,8.6v8.1h-3.3v6.2c-18.3,3.1-19.7,14.4-19.7,14.4v26.9c-7.1,3.3-8.4,7.4-8.6,8.4h-0.1
	v13.4h-12.1v1.5l4.7,6.6v23.1c0,0-0.6,6.4,7,11.4v0.3c-6.4,2.3-9.2,5-10.4,6.8h-5.2v15.9h4.1v11.1c0,32-25.9,57.9-57.9,57.9h-137.2
	c-32,0-57.9-25.9-57.9-57.9v-11.1h3.5v-15.9h-4.8c-1.1-1.8-3.9-4.3-10.1-6.6c8.6-5.3,7.9-12,7.9-12v-23.1l3.5-6.6v-1.5h-10.9v-13.2
	h0.1c0,0,0-0.1-0.1-0.3h-0.1c-0.1-1-1.5-5.3-9-8.6v-25.9v-0.1v-0.7c0,0-1.4-11.5-20-14.6v-6h-3.2v-7.9c4-1.3,6.8-4.7,6.8-8.8
	c0-4-2.8-7.3-6.8-8.7v-0.6h-0.1c-0.3-4.4-1.2-12.9-3.7-19.5c-2.5,6.6-3.4,15.1-3.7,19.5h-0.2v0.8c-3.6,1.5-6.1,4.7-6.1,8.5
	c0,3.8,2.5,7.1,6.1,8.6v8.1h-3.3v6.2c-18.3,3.1-19.7,14.4-19.7,14.4v26.9c-7.1,3.3-8.4,7.4-8.6,8.4v13.4h-12.1v1.5l4.6,6.6v23.1
	c0,0-0.7,6.4,7.1,11.4v0.3c-6.5,2.3-9.2,5-10.4,6.8h-5.5v15.9h4.3v69h-30.1V657.6l11.5-12.4l5.2-5.9v-4.7h-16.7V480.7l11.5-12.5
	l5.2-5.9v-4.5h-16.7v-92.9l11.5-12.5l5.2-6v-4.6h-25.5v-12.6h-7.6v-40.6h7.6v-11.4l5.1-5.5l5.2-5.9v-4.7l-54.3-12.8h-1.5
	c3.5-4.4,5.5-9.3,5.5-14.7c0-11.1-8.9-21-22.6-27.3l0.1-0.1c0,0-0.1,0-0.2-0.1c-0.5-0.2-1.2-0.4-1.8-0.7c-3.4-1.7-10-6.2-10.6-14.7
	v-11.9l2-4v-0.8h-6.2v-37.1h0.1c0,0-0.3-3-5.2-5.4v-15.8v-0.5c0,0-0.8-7.1-11.4-8.9v-3.7h-1.9v-22c3.4-0.9,5.9-4,5.9-7.7
	c0-3.6-2.5-6.7-5.9-7.6c0-1-0.2-8.3-2.2-13.5c-2,5.6-2.2,13.5-2.2,13.7c-3.2,1-5.6,4-5.6,7.5c0,3.5,2.4,6.6,5.6,7.6v22.1h-1.9v3.7
	c-10.5,1.8-11.2,8.9-11.2,8.9v16.5c-4,2-4.8,4.4-4.9,5.1h-0.1v37.2h-6.8v0.8l2.6,4v10.6c0,9.3-6.9,13.9-10.4,15.6
	c-0.7,0.3-1.3,0.6-1.8,0.8h-0.1c-14.2,6.4-23.4,16.6-23.4,27.9c0,5.3,2,10.3,5.4,14.7l-54.1,12.8v4.7l5.2,5.9l6,6.6v10.3h6.8v40.6
	h-6.8v12.6h-26.4v4.6l5.2,6l12.2,13.2v92.2h-17.4v4.5l5.2,5.9l12.2,13.3v153.1h-17.4v4.7l5.2,5.9l12.2,13.3v57.8
	c0,32-25.9,57.9-57.9,57.9h-29.1v1l-1.2-1l-26.7,35.9c-10.9,14.7-28.2,23.3-46.5,23.3H904v-23.7h8.3V784H904V688h8.3v-25.8H904V569
	h8.3v-25.8H904v-95.9h8.3v-26.9v-16.2h0.1l1.1-3.7v-1c-0.2,0-0.3,0-0.4-0.2c0,0-0.4-0.6-1.3-1.6c-2-3-6.1-10.2-7-21.2l-1.2-10.4
	c-0.8-0.8-1.6-1.3-2.4-1.7v-2.2h-2.1v-14c1.2-0.5,2-1.6,2-2.9c0-1.8-1.4-3.3-3.1-3.3c-1.7,0-3.2,1.4-3.2,3.3c0,1.2,0.9,2.4,2.1,2.9
	v14h-1.8v2c-1.6,0.8-2.7,1.9-2.7,1.9l-1.2,10.4c-0.9,11.1-5,18.2-7.1,21.2c-0.8,1.1-1.3,1.6-1.3,1.6c-0.1,0.1-0.3,0.2-0.4,0.2v1
	l1.6,3.7v3.3l-35.9-107.2v-5.8H847v-13c2.2-0.6,3.9-2.7,3.9-5c0-2.5-1.6-4.5-3.9-5.1c0-0.7-0.2-5.5-1.5-9.1
	c-1.4,3.8-1.5,9.1-1.5,9.2c-2.1,0.7-3.6,2.6-3.6,5c0,2.3,1.5,4.3,3.6,5v13h-1.2v2.9H810v-2.8h-1.1v-12.9c2.2-0.6,3.9-2.8,3.9-5.1
	c0-2.5-1.7-4.5-3.9-5.1c0-0.7-0.2-5.5-1.5-9.1c-1.4,3.8-1.5,9.1-1.5,9.1c-2.2,0.8-3.7,2.6-3.7,5.1c0,2.2,1.5,4.3,3.7,4.9v13.1h-1.3
	v5.6l-35.9,107.4v-3.4l1.2-3.7v-1c-0.2,0-0.2,0-0.4-0.2c0,0-0.5-0.6-1.2-1.6c-2.1-3-6.2-10.2-7.1-21.2l-1.2-10.4
	c-0.8-0.8-1.7-1.3-2.4-1.7v-2.2h-2.1v-14c1.1-0.5,2-1.6,2-2.9c0-1.8-1.4-3.3-3.2-3.3c-1.8,0-3.2,1.4-3.2,3.3c0,1.2,0.9,2.4,2.1,2.9
	v14h-1.9v2c-1.6,0.9-2.7,1.9-2.7,1.9l-1.1,10.4c-0.9,11.1-5,18.2-7.1,21.2c-0.8,1.1-1.3,1.6-1.3,1.6c-0.1,0.1-0.2,0.2-0.3,0.2v1
	l1.5,3.7v43.1h8.4v95.9h-8.4V569h8.4v72.5l-82.4-144.7v-33.6c4.4-1.5,7.6-5.5,7.6-10.3c0-4.9-3.2-9.1-7.8-10.6
	c-0.3-4.9-1.2-15.8-4.3-24c-3.2,8.4-4.1,19.4-4.3,24.2c-4.2,1.8-7.1,5.6-7.1,10.3c0,4.8,3.2,8.8,7.7,10.3v32.5l-82.5,145.8V569h8.4
	v-25.8h-8.4v-95.9h8.4v-26.9v-16.2h0.1l1.1-3.7v-1c-0.1,0-0.3,0-0.4-0.2c0,0-0.5-0.6-1.2-1.6c-2.1-3-6.2-10.2-7.1-21.2l-1.1-10.4
	c-0.9-0.8-1.6-1.3-2.4-1.7v-2.2H571v-14c1.2-0.5,2.1-1.6,2.1-2.9c0-1.8-1.5-3.3-3.2-3.3c-1.7,0-3.1,1.4-3.1,3.3c0,1.2,0.8,2.4,2,2.9
	v14H567v2c-1.7,0.8-2.7,1.9-2.7,1.9l-1.1,10.4c-0.9,11.1-4.9,18.2-7.1,21.2c-0.7,1.1-1.3,1.6-1.3,1.6c-0.1,0.1-0.2,0.2-0.3,0.2v1
	l1.5,3.7v3.3l-35.8-107.2v-5.8h-1.2v-13c2.3-0.6,3.9-2.7,3.9-5c0-2.5-1.6-4.5-3.9-5.1c0-0.7-0.3-5.5-1.5-9.1
	c-1.3,3.8-1.4,9.1-1.4,9.2c-2.2,0.7-3.7,2.6-3.7,5c0,2.3,1.5,4.3,3.7,5v13h-1.2v2.9h-32.9v-2.8h-1.2v-12.9c2.3-0.6,4-2.8,4-5.1
	c0-2.5-1.7-4.5-4-5.1c0-0.7-0.2-5.5-1.4-9.1c-1.3,3.8-1.5,9.1-1.5,9.1c-2.1,0.8-3.7,2.6-3.7,5.1c0,2.2,1.6,4.3,3.7,4.9v13.1h-1.3
	v5.7l-35.9,107.3v-3.4l1.1-3.7v-1c-0.1,0-0.3,0-0.3-0.2c0,0-0.5-0.6-1.3-1.6c-2.1-3-6.2-10.2-7.1-21.2l-1.2-10.4
	c-0.8-0.8-1.7-1.3-2.4-1.7v-2.2h-2.1v-14c1.2-0.5,2.1-1.6,2.1-2.9c0-1.8-1.4-3.3-3.2-3.3c-1.7,0-3.1,1.4-3.1,3.3
	c0,1.2,0.8,2.4,2,2.9v14h-1.8v2c-1.7,0.9-2.7,1.9-2.7,1.9l-1.1,10.4c-1,11.1-5,18.2-7.1,21.2c-0.7,1.1-1.3,1.6-1.3,1.6
	c-0.1,0.1-0.2,0.2-0.3,0.2v1l1.5,3.7v43.1h8.4v95.9h-8.4V569h8.4v93.2h-8.4V688h8.4V784h-8.4v25.7h8.4v23.7h-43.6v0.7l-0.9-0.7
	l-24.6,33.1C340.7,881.2,39.4,902,21,902l-20,125.7l160.6-37.6c0,0,156.6-37.6,191.5-42.9C459.3,930.9,566.8,921.9,673.7,912.9
	 M1307.6,288.7h7.4v40.6h-7.4V288.7z M1154.5,288.7h7.4v40.6h-7.4V288.7z"/>
</svg>
